<?xml version="1.0" encoding="utf-8"?>
<!-- Generator: Adobe Illustrator 22.1.0, SVG Export Plug-In . SVG Version: 6.00 Build 0)  -->
<svg version="1.1" id="Camada_1" xmlns="http://www.w3.org/2000/svg" xmlns:xlink="http://www.w3.org/1999/xlink" x="0px" y="0px"
	 viewBox="0 0 1280 800" style="enable-background:new 0 0 1280 800;" xml:space="preserve">
<style type="text/css">
	.st0{fill:#FFFFFF;}
	.st1{fill:#80DF90;}
	.st2{fill:#00BF21;}
	.st3{fill:#80DF11;}
	.st4{fill:#FFFF00;}
</style>
<g>
	<g>
		<g>
			<path class="st0" d="M489.4,423.4h-28.2V376h10.7v38.8h17.6V423.4z"/>
			<path class="st0" d="M510.4,376v8.3h-4v30.9h4v8.3h-18.6v-8.3h4v-30.9h-4V376H510.4z"/>
			<path class="st0" d="M517.3,423.4V376h17.3c5.3,0,9.4,1,12.2,2.9c2.8,1.9,4.3,4.7,4.3,8.2c0,2.6-0.9,4.8-2.6,6.7
				c-1.7,1.9-3.9,3.3-6.6,4v0.1c3.4,0.4,6.1,1.7,8.1,3.7s3,4.6,3,7.6c0,4.3-1.6,7.8-4.7,10.3c-3.1,2.5-7.4,3.8-12.7,3.8H517.3z
				 M527.9,383.9v11.2h4.7c2.2,0,3.9-0.5,5.2-1.6c1.3-1.1,1.9-2.5,1.9-4.4c0-3.5-2.6-5.2-7.8-5.2H527.9z M527.9,403v12.5h5.8
				c2.5,0,4.4-0.6,5.8-1.7c1.4-1.1,2.1-2.7,2.1-4.7c0-1.9-0.7-3.4-2.1-4.5c-1.4-1.1-3.3-1.6-5.8-1.6H527.9z"/>
			<path class="st0" d="M600.5,423.4h-12.3l-7.4-12.2c-0.6-0.9-1.1-1.8-1.6-2.5s-1-1.4-1.5-1.9c-0.5-0.5-1.1-0.9-1.6-1.2
				c-0.6-0.3-1.2-0.4-1.8-0.4h-2.9v18.2h-10.7V376h16.9c11.5,0,17.3,4.3,17.3,12.9c0,1.7-0.3,3.2-0.8,4.6c-0.5,1.4-1.2,2.7-2.1,3.8
				c-0.9,1.1-2,2.1-3.4,2.9c-1.3,0.8-2.8,1.5-4.4,1.9v0.1c0.7,0.2,1.4,0.6,2.1,1.1s1.3,1.1,1.9,1.7s1.2,1.4,1.8,2.1s1.1,1.5,1.5,2.2
				L600.5,423.4z M571.4,384v13.2h4.6c2.3,0,4.1-0.7,5.5-2c1.4-1.3,2.1-3,2.1-5c0-4.1-2.5-6.2-7.4-6.2H571.4z"/>
			<path class="st0" d="M646.6,423.4H635l-3.4-10.5h-16.9l-3.3,10.5h-11.6l17.3-47.4h12.7L646.6,423.4z M629.1,404.7l-5.1-15.9
				c-0.4-1.2-0.6-2.6-0.8-4.3H623c-0.1,1.4-0.4,2.8-0.8,4.1l-5.2,16.1H629.1z"/>
			<path class="st0" d="M650.3,421.6V411c1.9,1.6,4,2.8,6.3,3.6c2.2,0.8,4.5,1.2,6.8,1.2c1.3,0,2.5-0.1,3.5-0.4c1-0.2,1.8-0.6,2.5-1
				c0.7-0.4,1.2-0.9,1.5-1.5s0.5-1.2,0.5-1.9c0-0.9-0.3-1.8-0.8-2.5s-1.3-1.4-2.2-2s-2-1.2-3.3-1.8s-2.6-1.2-4.1-1.8
				c-3.7-1.5-6.5-3.4-8.3-5.7c-1.8-2.2-2.7-4.9-2.7-8.1c0-2.5,0.5-4.6,1.5-6.4c1-1.8,2.3-3.2,4.1-4.4s3.7-2,5.9-2.5
				c2.2-0.5,4.6-0.8,7.1-0.8c2.5,0,4.7,0.1,6.6,0.4s3.7,0.8,5.3,1.4v9.9c-0.8-0.6-1.7-1-2.6-1.5s-1.9-0.8-2.9-1c-1-0.3-2-0.5-3-0.6
				c-1-0.1-1.9-0.2-2.8-0.2c-1.2,0-2.3,0.1-3.3,0.3s-1.8,0.6-2.5,1s-1.2,0.9-1.6,1.5c-0.4,0.6-0.6,1.2-0.6,2c0,0.8,0.2,1.5,0.6,2.1
				c0.4,0.6,1,1.2,1.8,1.8s1.7,1.1,2.8,1.7c1.1,0.5,2.3,1.1,3.7,1.7c1.9,0.8,3.6,1.6,5.1,2.5c1.5,0.9,2.8,1.9,3.9,3
				c1.1,1.1,1.9,2.4,2.5,3.9c0.6,1.4,0.9,3.1,0.9,5c0,2.6-0.5,4.9-1.5,6.7c-1,1.8-2.4,3.3-4.1,4.4c-1.7,1.1-3.7,1.9-6,2.4
				c-2.3,0.5-4.7,0.7-7.2,0.7c-2.6,0-5.1-0.2-7.4-0.7C654.1,423.1,652.1,422.5,650.3,421.6z"/>
		</g>
		<g>
			<g>
				<path class="st0" d="M366.4,424v-69.7h21.8h0c12,0,21.8,9.8,21.8,21.8l0,0v15.8c0,3.3,2.7,6,6,6h7.1h0c7.2,0,13.1,5.9,13.1,13.1
					v0V424L366.4,424z"/>
				<path class="st1" d="M388.2,367.4h11.5l0,0c0.1,0,1.8,0,1.9,0l0,0c7.4,0,13.6,5.2,14.8,11.7c0,0,0,0,0,0
					c1.3,0.6,2.5,9.3,3.5,10.2c0.6,2.2,2.4,4.2,4.5,4.9c0.3,0.5,4.2,1.1,4.4,1.6c0,0,0,0,0,0c3.4,1.3,5.9,4.6,7,8.6c0,0,0,0,0,0
					c0.2,0.7,0.3,2.4,0.3,3.2l0,0v9.9l-24.4-2.2l-24.4-2.2l0.4-22.9L388.2,367.4z"/>
				<path class="st2" d="M436.1,411.3v-9v0c0-6-2.4-11.5-6.4-15.4c-2-2-4.3-3.6-6.9-4.7c-2.6-1.1-5.5-1.7-8.5-1.7l0,0H410l-0.8,11
					l-0.8,11l13.9,4.4L436.1,411.3z"/>
				<path class="st3" d="M388.2,367.4h7.8l0,0c0.1,0,1.1,0,1.2,0c5,0,9.3,3.3,10.5,7.4c0.4,0.2,0.8,3.9,1.2,4.1
					c0.5,1.9,2.4,3.6,4.4,4c0.3,0.2,3.2,0.5,3.5,0.7c0.3,0.3,3.7,0.6,3.9,0.9c0.5,0.6,0.9,6.9,1.2,7.6c0.3,2.2,1.8,4.1,3.7,4.6
					c0.1,0.4,3.9,0.9,3.9,1.3c1.9,0.6,3.4,2.2,4.8,3.9c0,0,0,0,0,0c1.2,1.2,1.9,4.8,1.9,6.6v9.1l-24.4-2.2l-24.4-2.2l0.4-22.9
					L388.2,367.4z"/>
				<path class="st4" d="M366.4,424v-34.9v-34.9h13c7.2,0,13.2,5.9,13.2,13.2v7.1c0,3.3,2.7,5.9,5.9,5.9h11.6v11.5
					c0,3.3,2.7,5.9,5.9,5.9h7.2c7.2,0,13,5.8,13,13V424h-34.9H366.4z"/>
			</g>
		</g>
	</g>
	<g>
		<path class="st4" d="M722.2,424.2c-6.7,0-12.1-2.2-16.2-6.6s-6.1-10.2-6.1-17.3c0-7.6,2.1-13.7,6.2-18.3c4.1-4.5,9.7-6.8,16.8-6.8
			c6.5,0,11.8,2.2,15.8,6.6c4,4.4,6,10.2,6,17.3c0,7.7-2,13.9-6.2,18.4C734.5,422,729,424.2,722.2,424.2z M722.6,380.2
			c-5,0-9,1.8-12.1,5.4c-3.1,3.6-4.7,8.3-4.7,14.2c0,5.8,1.5,10.5,4.5,14.1c3,3.6,7,5.3,11.9,5.3c5.2,0,9.3-1.7,12.3-5.1
			s4.5-8.1,4.5-14.3c0-6.3-1.5-11.1-4.4-14.5C731.7,381.9,727.7,380.2,722.6,380.2z"/>
		<path class="st4" d="M770.1,378c-1.1-0.6-2.3-0.9-3.6-0.9c-3.8,0-5.7,2.4-5.7,7.2v5.2h7.9v4.6h-7.9v29.2h-5.4v-29.2h-5.8v-4.6h5.8
			v-5.5c0-3.5,1-6.4,3.1-8.4c2.1-2.1,4.6-3.1,7.7-3.1c1.7,0,3,0.2,3.9,0.6V378z"/>
		<path class="st4" d="M791.3,378c-1.1-0.6-2.3-0.9-3.6-0.9c-3.8,0-5.7,2.4-5.7,7.2v5.2h7.9v4.6H782v29.2h-5.4v-29.2h-5.8v-4.6h5.8
			v-5.5c0-3.5,1-6.4,3.1-8.4s4.6-3.1,7.7-3.1c1.7,0,3,0.2,3.9,0.6V378z"/>
		<path class="st4" d="M798.5,381c-1,0-1.8-0.3-2.5-1s-1-1.5-1-2.5c0-1,0.3-1.9,1-2.5s1.5-1,2.5-1c1,0,1.8,0.3,2.5,1s1,1.5,1,2.5
			c0,1-0.3,1.8-1,2.5C800.4,380.6,799.5,381,798.5,381z M801.2,423.4h-5.4v-33.9h5.4V423.4z"/>
		<path class="st4" d="M835.3,421.9c-2.6,1.6-5.7,2.3-9.3,2.3c-4.8,0-8.7-1.6-11.7-4.7c-3-3.1-4.4-7.2-4.4-12.2
			c0-5.6,1.6-10.1,4.8-13.4s7.5-5.1,12.8-5.1c3,0,5.6,0.6,7.9,1.7v5.6c-2.5-1.8-5.2-2.6-8.1-2.6c-3.5,0-6.3,1.2-8.5,3.7
			c-2.2,2.5-3.3,5.7-3.3,9.8c0,4,1,7.1,3.1,9.4c2.1,2.3,4.9,3.4,8.4,3.4c3,0,5.7-1,8.3-2.9V421.9z"/>
		<path class="st4" d="M870.7,407.8h-23.9c0.1,3.8,1.1,6.7,3,8.7c1.9,2.1,4.6,3.1,8,3.1c3.8,0,7.3-1.3,10.5-3.8v5.1
			c-3,2.2-6.9,3.2-11.8,3.2c-4.8,0-8.5-1.5-11.3-4.6c-2.7-3.1-4.1-7.4-4.1-13c0-5.3,1.5-9.6,4.5-12.9s6.7-5,11.1-5s7.9,1.4,10.3,4.3
			c2.4,2.9,3.6,6.8,3.6,11.9V407.8z M865.1,403.2c0-3.1-0.8-5.6-2.3-7.3c-1.5-1.7-3.6-2.6-6.2-2.6c-2.6,0-4.7,0.9-6.5,2.7
			c-1.8,1.8-2.9,4.2-3.3,7.2H865.1z"/>
	</g>
</g>
<g>
</g>
<g>
</g>
<g>
</g>
<g>
</g>
<g>
</g>
</svg>
